<?xml version="1.0" standalone="no"?>
<!DOCTYPE svg PUBLIC "-//W3C//DTD SVG 20010904//EN"
 "http://www.w3.org/TR/2001/REC-SVG-20010904/DTD/svg10.dtd">
<svg version="1.0" xmlns="http://www.w3.org/2000/svg"
 width="1208.000000pt" height="1222.000000pt" viewBox="0 0 1208.000000 1222.000000"
 preserveAspectRatio="xMidYMid meet">

<g transform="translate(0.000000,1222.000000) scale(0.100000,-0.100000)"
fill="#000000" stroke="none">
<path d="M3675 10225 c-111 -25 -2022 -577 -2109 -609 -159 -60 -288 -182
-336 -318 -11 -32 -20 -72 -20 -90 1 -75 54 -267 181 -651 33 -98 57 -182 54
-187 -10 -16 97 -340 113 -340 9 0 11 -7 7 -21 -4 -13 -1 -27 10 -39 9 -10 18
-38 19 -62 4 -55 107 -382 117 -367 5 8 9 8 14 -1 4 -7 2 -16 -6 -21 -11 -6
-10 -11 3 -26 16 -18 37 -81 198 -583 45 -140 122 -379 170 -530 301 -935 427
-1346 416 -1357 -3 -4 -6 1 -6 11 0 16 -2 16 -22 2 -16 -11 -26 -12 -40 -5
-15 8 -23 7 -35 -8 -8 -10 -12 -12 -8 -5 4 7 0 12 -9 12 -10 0 -13 -6 -9 -16
5 -14 3 -15 -15 -5 -29 15 -40 14 -17 -3 18 -13 17 -14 -8 -11 -21 3 -27 -1
-27 -16 0 -10 -7 -19 -15 -19 -8 0 -15 5 -15 10 0 6 4 10 9 10 6 0 9 9 8 19
-1 23 -17 17 -17 -6 0 -10 -6 -14 -20 -10 -11 3 -22 2 -25 -3 -3 -4 4 -10 15
-13 14 -4 18 -10 13 -23 -5 -14 -8 -15 -12 -3 -3 8 -12 15 -20 17 -8 2 -11 -3
-8 -13 4 -8 4 -22 0 -30 -5 -14 -8 -14 -26 2 -19 18 -19 17 -13 -4 6 -19 2
-25 -19 -33 -34 -13 -38 -13 -29 2 5 7 3 8 -5 4 -7 -5 -10 -14 -7 -21 3 -8 0
-16 -7 -19 -7 -2 -1 -5 12 -5 27 -1 20 -16 -7 -16 -11 0 -17 -8 -16 -22 0 -12
-3 -20 -7 -17 -4 2 -6 -8 -5 -23 2 -19 -3 -33 -16 -41 -10 -7 -16 -18 -13 -23
4 -5 -2 -9 -12 -9 -15 0 -16 -2 -3 -10 11 -7 17 -4 24 10 5 11 13 20 18 20 5
0 6 -5 3 -10 -4 -6 -2 -16 4 -23 6 -8 6 -18 1 -27 -8 -12 -10 -11 -11 5 0 11
-3 14 -6 7 -2 -6 -8 -10 -12 -7 -5 2 -7 -13 -6 -35 1 -22 -2 -40 -6 -40 -5 0
-9 -4 -9 -10 0 -5 6 -7 14 -4 18 7 58 -14 51 -27 -4 -5 -12 -9 -18 -9 -7 0 -6
4 3 11 10 7 11 9 2 7 -20 -5 -18 -23 3 -27 27 -5 40 -23 40 -54 -1 -17 4 -27
13 -27 11 0 12 -3 4 -13 -6 -7 -7 -18 -3 -26 6 -9 11 -10 15 -2 12 18 26 12
26 -10 0 -14 -5 -19 -14 -16 -10 4 -13 1 -9 -9 4 -10 9 -12 16 -5 5 5 16 7 25
4 11 -5 13 -3 7 7 -5 8 -4 11 2 7 12 -7 5 -57 -8 -57 -5 0 -6 7 -3 15 4 8 1
15 -4 15 -17 0 -20 -13 -7 -38 9 -16 14 -20 18 -10 3 10 8 8 19 -6 14 -18 16
-18 25 -2 9 16 11 16 16 2 4 -9 1 -15 -6 -13 -6 1 -13 -9 -15 -22 -2 -14 0
-21 6 -17 6 3 18 -1 26 -10 9 -9 23 -13 31 -10 12 4 13 2 6 -13 -8 -13 -6 -23
5 -37 9 -11 12 -12 8 -4 -7 13 -5 13 9 2 9 -8 19 -22 22 -33 4 -11 11 -16 17
-13 8 5 9 1 4 -11 -5 -15 -4 -16 9 -5 13 11 14 10 9 -3 -4 -12 2 -18 21 -23
14 -3 24 -8 21 -11 -2 -3 0 -18 6 -33 6 -19 15 -27 24 -23 8 3 14 0 14 -6 0
-6 5 -11 10 -11 10 0 88 -74 92 -87 1 -5 16 -19 33 -33 16 -14 33 -29 37 -35
4 -5 8 -6 8 -2 0 4 15 -7 33 -26 17 -18 49 -42 70 -52 20 -11 37 -24 37 -29 0
-5 3 -6 7 -3 3 4 16 1 27 -7 18 -11 85 -31 181 -52 39 -8 343 -9 415 -1 30 3
102 9 160 13 l105 6 465 465 465 464 -70 -26 c-916 -345 -964 -364 -945 -365
3 0 93 29 200 65 107 36 197 65 200 65 17 -1 -61 -30 -357 -129 -271 -91 -346
-113 -411 -118 -114 -8 -128 -3 -136 52 -5 29 -12 45 -22 45 -8 0 -14 5 -14
10 0 7 27 8 78 4 102 -9 118 -4 907 257 551 181 645 215 672 242 18 17 31 32
30 34 -2 1 -300 -96 -663 -217 -362 -121 -695 -230 -739 -241 -60 -16 -103
-20 -171 -17 l-91 3 -58 50 c-69 59 -97 114 -173 345 -57 174 -305 935 -389
1195 -127 395 -156 483 -173 535 -10 30 -64 197 -120 370 -56 173 -121 374
-145 445 -23 72 -88 272 -144 445 -57 173 -136 419 -177 545 -41 127 -97 298
-124 380 -207 638 -192 591 -206 678 -8 56 21 135 65 174 42 38 24 44 -23 8
-36 -27 -56 -32 -56 -12 0 18 10 28 60 69 55 44 113 65 450 163 146 42 411
120 590 172 179 52 449 131 600 174 329 96 620 183 675 204 l40 14 -35 0 c-19
-1 -62 -7 -95 -14z m-1555 -5607 c0 -14 -15 -16 -27 -3 -10 11 -9 13 7 12 11
-1 20 -5 20 -9z m0 -32 c17 2 30 0 30 -5 0 -13 -63 -7 -66 7 -1 7 0 8 2 4 3
-5 18 -8 34 -6z m50 -112 c0 -8 -5 -12 -10 -9 -6 4 -8 11 -5 16 9 14 15 11 15
-7z m1940 -94 c-8 -5 -22 -9 -30 -9 -10 0 -8 3 5 9 27 12 43 12 25 0z"/>
<path d="M3848 10233 c12 -2 32 -2 45 0 12 2 2 4 -23 4 -25 0 -35 -2 -22 -4z"/>
<path d="M3942 10221 c15 -5 57 -30 92 -56 61 -45 66 -52 99 -139 31 -79 127
-325 342 -876 184 -472 328 -842 435 -1115 181 -461 240 -623 240 -653 0 -15
6 -52 14 -82 17 -64 77 -232 81 -228 2 2 -3 27 -11 57 -7 30 -12 57 -9 59 3 3
19 -26 36 -64 28 -61 223 -553 299 -754 15 -41 63 -163 105 -270 42 -107 86
-220 97 -250 11 -30 24 -59 28 -63 9 -10 80 62 80 80 0 7 -4 22 -10 35 -5 13
-43 109 -84 213 -41 105 -109 278 -151 385 -42 107 -102 258 -132 335 -30 77
-103 264 -163 415 -60 151 -152 384 -204 518 -53 133 -138 349 -190 480 -97
247 -109 281 -123 347 -4 23 -14 40 -21 40 -8 0 -34 52 -62 125 -27 69 -73
187 -103 263 -31 78 -50 137 -43 137 8 0 8 2 -1 8 -10 7 -64 139 -260 637 -71
181 -107 248 -166 307 -54 54 -143 103 -203 112 -32 5 -34 4 -12 -3z"/>
<path d="M2785 9841 c-27 -10 -105 -33 -172 -52 -68 -19 -123 -36 -123 -39 0
-3 4 -11 9 -18 7 -11 43 -4 187 38 98 28 180 53 182 54 6 7 -11 36 -22 35 -6
0 -33 -8 -61 -18z"/>
<path d="M8228 8024 c-121 -22 -253 -89 -362 -183 -50 -43 -259 -249 -464
-457 -205 -209 -567 -575 -805 -814 -238 -239 -421 -425 -407 -414 14 11 68
58 120 105 52 46 104 91 115 99 19 14 19 14 5 -5 -8 -11 -354 -362 -770 -780
-1107 -1113 -1181 -1187 -1340 -1342 -393 -383 -939 -941 -958 -978 -48 -96
-53 -246 -12 -340 59 -135 141 -193 617 -437 62 -32 103 -59 103 -68 0 -12 2
-12 9 -1 6 9 11 10 15 2 4 -6 4 -11 -1 -12 -4 0 -25 -2 -45 -5 -22 -3 -38 0
-38 6 0 5 -5 10 -11 10 -5 0 -7 -5 -3 -12 5 -8 2 -9 -9 -5 -10 4 -17 1 -17 -6
0 -8 -3 -8 -9 2 -7 10 -10 10 -13 1 -3 -10 -9 -10 -28 -1 -22 11 -23 10 -8 -2
17 -13 17 -15 -1 -35 -10 -12 -21 -18 -25 -14 -4 4 -12 -1 -17 -11 -6 -9 -17
-17 -26 -17 -9 0 -13 -6 -10 -14 7 -16 -37 -13 -58 4 -11 9 -15 9 -15 1 0 -6
0 -14 0 -18 0 -5 3 -8 8 -8 4 0 13 -4 20 -8 6 -5 16 -6 21 -3 5 3 11 -1 15 -9
3 -10 -1 -15 -13 -15 -11 0 -21 5 -23 12 -6 16 -74 14 -94 -2 -16 -14 -16 -14
-32 15 -8 14 -11 15 -11 5 0 -8 6 -24 14 -34 17 -23 9 -42 -11 -25 -22 18 -45
3 -38 -25 3 -13 1 -27 -5 -31 -15 -9 -51 4 -51 18 0 8 3 8 12 -1 14 -14 38
-16 38 -2 0 5 -7 7 -15 4 -8 -4 -15 -1 -15 5 0 6 -7 11 -15 11 -20 0 -19 -30
3 -47 9 -8 11 -12 5 -8 -7 3 -13 0 -13 -7 0 -8 6 -20 13 -27 10 -11 9 -13 -3
-7 -8 4 -6 0 5 -9 16 -13 18 -19 7 -35 -7 -12 -8 -20 -2 -20 5 0 10 5 10 11 0
5 5 7 10 4 6 -4 8 -10 5 -15 -3 -4 4 -6 15 -3 12 3 20 0 20 -8 0 -7 3 -9 7 -6
3 4 12 2 20 -4 10 -9 13 -7 14 7 0 11 3 14 6 6 3 -7 -1 -19 -7 -27 -8 -10 -9
-15 -2 -15 6 0 14 5 17 10 10 16 25 12 25 -6 0 -11 5 -14 17 -10 10 4 14 4 10
0 -10 -10 13 -35 26 -27 5 3 7 2 4 -3 -3 -6 -2 -16 4 -24 7 -12 9 -9 9 10 0
19 2 22 9 10 6 -8 7 -18 4 -24 -3 -5 -1 -6 5 -2 6 4 20 -2 31 -13 11 -11 23
-16 26 -11 4 6 14 10 23 10 13 0 12 -5 -8 -20 -18 -15 -20 -18 -6 -13 15 5 18
3 14 -9 -5 -12 1 -15 25 -15 39 1 60 -5 69 -18 4 -6 13 -2 22 10 13 18 14 18
9 -9 -5 -25 -3 -28 14 -24 17 5 20 1 16 -25 -2 -24 0 -28 9 -19 16 16 31 15
25 -2 -4 -11 1 -13 24 -11 16 2 34 7 39 10 5 3 7 0 4 -8 -3 -8 2 -17 11 -21 9
-3 13 -11 9 -17 -4 -8 3 -9 27 -4 30 7 32 6 20 -9 -12 -14 -12 -16 4 -10 13 6
16 4 10 -6 -5 -8 -3 -11 6 -8 8 3 29 -3 46 -13 18 -10 41 -16 50 -13 14 5 15
4 4 -4 -10 -7 -11 -14 -2 -31 7 -11 14 -21 17 -21 3 0 3 4 0 9 -3 5 0 13 7 19
10 9 12 3 12 -23 -1 -30 1 -33 17 -24 10 5 18 6 18 2 0 -4 5 -2 12 5 17 17 39
-27 24 -48 -7 -10 -4 -9 10 2 22 19 44 24 44 9 0 -5 10 -11 23 -15 17 -5 19
-8 8 -15 -20 -13 5 -24 28 -11 32 17 38 11 11 -12 l-25 -21 28 7 c22 5 27 4
21 -6 -5 -8 -1 -8 11 2 17 14 18 13 12 -3 -5 -14 -2 -16 21 -11 26 5 26 5 7
-11 -19 -16 -19 -16 7 -10 21 5 29 3 34 -9 5 -14 9 -14 22 -4 12 10 14 10 8 1
-4 -7 -2 -13 3 -13 6 0 11 -4 11 -10 0 -5 -7 -7 -15 -4 -8 4 -15 4 -15 1 0
-14 32 -14 46 1 16 16 17 15 10 -11 -5 -20 -3 -27 9 -27 8 0 24 -9 35 -20 11
-11 20 -15 20 -9 0 5 5 7 10 4 20 -13 9 13 -12 29 -20 14 -20 15 -3 9 11 -4
28 -16 39 -27 10 -12 22 -20 27 -19 4 2 6 -4 3 -12 -4 -9 0 -15 7 -16 8 0 5
-4 -6 -9 -19 -8 -18 -9 5 -11 14 -1 33 -1 43 -1 10 1 17 -4 15 -11 -2 -6 -1
-13 2 -14 3 -1 17 -6 33 -12 15 -6 27 -6 27 -2 0 5 -6 11 -12 14 -7 3 -3 4 8
4 14 -1 20 -6 17 -14 -3 -7 0 -13 6 -13 6 0 10 -3 9 -7 0 -5 2 -16 6 -25 10
-22 27 -13 19 9 -4 11 -3 14 5 9 7 -4 12 -14 12 -21 0 -8 11 -17 25 -21 14 -3
25 -12 25 -20 0 -8 9 -14 21 -14 13 0 23 -8 26 -21 4 -15 8 -17 14 -8 4 8 1
18 -9 25 -14 10 -13 13 9 24 22 12 23 12 10 -3 -12 -15 -11 -17 10 -18 13 0
18 -3 12 -6 -14 -5 -18 -24 -5 -22 21 4 32 -2 26 -13 -4 -7 2 -5 14 6 24 20
55 15 46 -8 -7 -17 51 -52 61 -37 3 6 14 8 25 6 13 -3 20 2 21 13 0 14 2 14 6
2 3 -8 12 -21 21 -27 14 -12 14 -13 -4 -14 -16 0 -15 -2 6 -11 14 -6 47 -10
73 -9 30 1 58 -4 72 -13 13 -9 31 -13 39 -10 9 3 16 1 16 -5 0 -6 5 -11 11
-11 5 0 8 4 4 9 -11 18 15 22 40 5 14 -9 25 -14 25 -10 0 3 12 1 26 -4 14 -6
23 -6 20 -1 -4 5 0 11 6 14 7 2 10 8 5 12 -4 5 -13 3 -19 -3 -17 -17 -31 -15
-24 4 6 15 4 15 -10 3 -13 -11 -17 -11 -25 3 -5 10 -18 14 -31 12 -21 -4 -21
-4 -3 5 12 5 27 5 38 -1 10 -5 21 -7 24 -4 4 3 12 1 20 -5 7 -6 13 -7 13 -2 0
15 28 11 34 -4 3 -8 10 -12 15 -8 5 3 12 1 16 -5 3 -5 12 -10 18 -10 8 0 8 3
2 8 -5 4 -17 16 -25 27 -11 16 -11 17 0 8 18 -17 38 -17 22 -1 -7 7 -12 17
-12 22 0 6 5 3 11 -6 5 -10 17 -18 24 -18 8 0 14 -3 13 -7 -2 -13 14 -43 23
-43 6 0 5 8 -1 19 -5 11 -10 24 -10 29 0 11 42 3 50 -9 3 -4 12 -4 20 2 12 7
11 10 -7 15 -14 4 -20 11 -16 18 11 16 10 30 0 37 -6 4 -5 14 0 23 9 16 11 16
22 2 11 -13 11 -16 0 -16 -7 0 -3 -10 11 -25 13 -14 18 -25 11 -25 -7 0 -9 -4
-6 -10 3 -5 11 -10 16 -10 6 0 8 4 4 9 -3 5 -1 12 5 16 5 3 10 -3 10 -14 0
-11 4 -22 9 -26 6 -3 8 4 6 17 -3 12 1 26 8 30 9 6 9 8 -1 8 -8 0 -6 8 8 22
11 12 23 18 27 14 4 -4 1 -12 -7 -17 -13 -9 -13 -10 0 -6 8 2 23 0 32 -5 14
-6 16 -5 12 7 -3 8 -10 12 -16 9 -5 -3 -4 3 4 15 12 20 29 29 27 14 -3 -20 2
-34 11 -28 5 3 7 13 4 23 -4 9 2 5 12 -9 12 -17 23 -23 29 -17 6 5 19 16 30
24 11 9 14 12 6 8 -11 -5 -13 -2 -9 14 6 22 -17 51 -30 37 -4 -4 -1 -10 6 -12
6 -3 12 -10 12 -16 0 -8 -3 -8 -11 0 -6 6 -17 9 -24 7 -7 -3 -16 -1 -20 5 -3
6 0 9 9 5 9 -3 17 2 21 15 4 13 11 18 18 14 7 -4 17 -8 22 -8 6 0 11 -6 11
-12 1 -7 2 -18 3 -24 0 -5 6 -7 12 -4 6 4 8 13 5 20 -2 7 2 16 10 19 16 6 18
34 4 56 -7 12 -12 12 -22 2 -7 -7 -8 -12 -2 -12 6 0 11 -6 11 -13 0 -8 -6 -14
-14 -14 -8 0 -11 9 -8 25 6 33 13 38 35 24 14 -9 20 -9 24 1 3 7 3 2 0 -10 -6
-26 20 -33 30 -8 3 9 12 12 22 8 15 -5 13 -10 -12 -31 l-29 -24 32 18 c17 9
34 25 36 33 3 9 8 25 13 35 5 14 4 17 -4 12 -7 -4 -12 -1 -12 9 0 12 4 13 18
7 9 -5 25 -8 35 -7 9 2 17 -2 17 -8 0 -17 31 17 34 38 3 20 32 29 42 14 3 -5
11 -9 17 -9 7 0 -1 9 -16 19 -18 11 -25 21 -18 25 6 4 11 2 11 -5 0 -7 3 -9 6
-6 4 3 15 2 26 -4 15 -8 24 -7 39 7 23 21 24 34 4 34 -8 0 -15 4 -15 10 0 5 7
7 15 4 8 -4 23 0 33 7 9 7 14 9 10 5 -9 -10 9 -36 24 -36 5 0 3 10 -3 23 -12
22 -12 22 9 4 20 -19 21 -18 15 5 l-6 23 20 -20 c11 -12 23 -27 26 -35 4 -11
6 -10 8 5 3 30 5 38 13 57 4 9 5 21 2 26 -3 6 1 13 10 16 24 9 29 7 16 -6 -9
-9 -8 -16 5 -30 15 -17 11 -22 -17 -20 -3 0 -6 -8 -6 -18 0 -14 4 -16 18 -9 9
5 20 13 23 19 3 5 12 7 20 3 9 -3 22 0 30 7 13 10 15 9 15 -11 1 -23 1 -23 12
-5 8 15 8 21 0 24 -7 2 -10 14 -6 30 5 24 4 24 -12 -6 -13 -26 -21 -31 -38
-26 -28 9 -27 6 -17 40 5 16 10 25 10 20 1 -5 8 -3 16 4 12 10 15 10 15 -4 0
-9 -4 -16 -8 -16 -5 0 -9 -7 -9 -15 0 -24 22 -11 25 14 3 18 8 22 25 17 20 -5
21 -4 4 8 -10 8 -15 20 -11 30 9 23 21 20 28 -9 4 -14 11 -25 17 -25 7 0 6 -6
-2 -16 -12 -15 -11 -16 8 -10 19 6 21 3 18 -21 -2 -25 -2 -26 11 -8 18 24 18
30 -1 48 -11 12 -12 17 -2 21 6 3 2 3 -10 1 -12 -3 -25 0 -29 6 -5 9 2 11 28
6 40 -6 52 0 56 28 3 16 1 18 -9 8 -7 -7 -18 -13 -23 -13 -6 0 -3 5 7 11 9 6
15 14 13 18 -3 5 6 6 19 3 20 -3 23 -7 15 -23 -9 -15 -8 -17 6 -12 12 4 15 3
10 -5 -4 -7 -2 -12 4 -12 7 0 9 7 6 16 -8 22 9 51 42 68 23 13 24 15 7 16 -19
1 -19 1 -2 11 22 13 62 -10 72 -41 3 -11 11 -20 16 -20 6 0 8 4 5 8 -3 5 -1
22 4 38 7 25 8 26 9 6 1 -16 6 -22 19 -20 9 1 22 -1 29 -5 7 -5 10 -1 8 10 -2
10 -4 21 -4 24 -1 3 -8 6 -16 6 -9 0 -14 -6 -11 -14 3 -7 1 -13 -5 -13 -17 0
-5 34 12 38 9 2 23 -3 30 -10 8 -7 22 -19 31 -27 16 -12 17 -11 1 19 -9 18
-24 35 -34 37 -21 6 -32 30 -18 38 5 4 8 1 7 -7 -2 -8 4 -12 15 -10 9 2 16 -2
15 -9 -2 -6 3 -14 10 -16 6 -3 12 0 12 6 0 6 7 11 15 11 8 0 15 7 15 15 0 18
-12 19 -28 3 -8 -8 -12 -8 -12 -1 0 6 6 16 14 22 15 12 38 -7 42 -36 2 -9 8
-21 15 -27 9 -8 10 -8 5 2 -4 6 -2 12 4 12 6 0 8 5 5 10 -4 6 -10 8 -15 5 -4
-3 -6 4 -3 15 3 12 0 20 -7 20 -7 0 1 14 18 30 21 19 26 30 17 30 -8 0 -15 7
-15 15 0 13 3 13 20 3 16 -10 24 -10 40 0 23 14 40 16 40 3 0 -10 -39 -27 -52
-23 -5 1 -8 -3 -8 -8 0 -6 5 -10 11 -10 5 0 7 -5 4 -10 -4 -6 -11 -8 -16 -4
-14 8 -39 -15 -39 -37 0 -14 7 -19 28 -19 20 0 23 3 12 9 -8 6 -18 7 -23 4 -5
-3 -7 0 -5 8 6 18 48 12 64 -9 9 -12 13 -12 19 -2 5 9 4 11 -3 6 -15 -9 -15
-1 -1 25 5 11 14 17 20 14 5 -4 7 -12 3 -18 -3 -7 13 7 36 31 44 44 54 49 66
30 4 -7 3 -8 -5 -4 -12 8 -41 -10 -41 -25 0 -5 7 -9 15 -9 8 0 15 5 15 12 0 6
3 9 6 5 4 -3 13 0 20 8 16 15 19 29 5 20 -22 -13 -17 13 7 45 26 35 43 42 58
28 4 -5 16 -8 26 -8 11 0 16 -4 13 -10 -3 -5 -1 -10 4 -10 15 0 14 13 -1 29
-11 11 -10 13 4 8 12 -4 15 -2 12 8 -3 8 -13 11 -22 7 -14 -5 -15 -3 -5 10 7
8 10 18 6 21 -3 4 -11 0 -17 -8 -9 -13 -11 -11 -11 9 0 13 3 22 8 19 16 -10
19 29 2 41 -16 11 -15 14 10 30 25 16 27 16 22 2 -4 -9 -2 -16 3 -16 6 0 10 5
10 12 0 6 3 8 6 5 4 -3 16 0 28 8 11 8 25 15 31 15 5 -1 -1 -7 -15 -16 l-25
-15 33 6 c28 6 32 4 32 -14 0 -12 4 -21 10 -21 5 0 7 -8 5 -17 -3 -10 1 -4 9
12 8 17 15 23 16 15 0 -16 50 -25 50 -9 0 5 11 7 25 5 18 -3 23 -1 18 7 -5 9
-3 9 8 1 8 -6 25 -8 39 -3 24 7 24 7 3 8 -13 1 -23 5 -23 10 0 12 28 22 32 12
2 -5 18 -6 36 -4 29 5 32 8 30 37 -1 17 -9 36 -18 43 -8 6 -12 15 -8 19 4 4
23 -5 43 -20 36 -28 42 -27 25 4 -11 21 11 46 31 34 9 -5 8 -10 -5 -19 -15
-12 -15 -13 4 -18 11 -3 18 -1 15 3 -10 16 30 30 45 17 12 -10 12 -9 2 4 -6 9
-8 20 -4 24 4 5 1 5 -5 1 -8 -4 -13 -1 -13 9 0 13 4 14 20 5 11 -6 18 -15 15
-20 -3 -5 -1 -11 4 -15 13 -8 5 33 -11 54 -9 11 -6 10 10 -3 22 -19 26 -16 23
16 -2 11 3 16 11 13 9 -4 13 4 14 25 1 19 -3 27 -10 23 -6 -3 -8 -2 -4 2 12
13 58 15 58 3 0 -6 9 -1 20 12 11 13 20 18 20 11 0 -7 5 -9 12 -5 7 4 8 3 4
-4 -9 -14 56 -33 66 -19 3 6 22 11 42 11 32 1 34 3 19 13 -15 12 -15 13 5 13
12 0 26 9 32 20 13 25 2 26 -16 3 -8 -11 -13 -13 -14 -5 0 6 -7 12 -16 12 -8
0 -12 5 -9 10 4 6 10 8 15 5 5 -3 11 -1 15 4 3 6 12 8 20 5 7 -3 22 -1 32 5
14 8 15 10 3 11 -13 0 -13 1 0 10 36 23 43 -10 8 -34 -12 -9 -17 -16 -11 -16
7 0 15 5 19 11 4 8 9 7 15 -2 7 -12 10 -12 21 0 8 9 9 11 1 7 -6 -3 -14 -2
-18 4 -3 5 -2 10 4 10 5 0 12 9 16 19 3 10 16 22 28 25 18 5 20 8 7 16 -17 11
-16 11 22 14 18 1 28 -4 31 -16 3 -11 14 -17 29 -17 23 2 23 2 1 6 -13 2 -23
9 -23 15 0 5 6 8 13 5 6 -2 18 2 25 9 7 8 9 14 5 14 -4 0 9 11 28 25 19 13 40
29 47 35 6 6 12 7 12 2 0 -15 34 -8 43 8 7 15 3 -19 -8 -57 -3 -10 1 -6 8 9 9
20 16 25 25 18 6 -6 10 -7 7 -4 -8 11 16 34 28 27 6 -4 8 0 4 10 -4 12 3 17
34 22 26 5 45 16 59 34 11 16 17 31 14 33 -3 3 2 8 11 12 13 4 14 2 5 -14 -7
-13 -7 -21 2 -26 7 -4 8 -3 4 4 -4 7 -1 12 6 12 8 0 14 9 15 21 2 17 -2 20
-22 15 -23 -6 -42 15 -29 35 3 5 0 9 -5 9 -6 0 -10 15 -10 33 2 30 2 30 6 5 2
-16 9 -28 14 -28 6 0 8 4 4 9 -3 5 4 16 16 24 11 8 16 18 11 21 -6 3 -8 15 -5
26 4 15 1 18 -16 15 -12 -2 -21 1 -21 7 0 5 7 8 15 4 8 -3 15 -1 15 5 0 5 12
7 28 5 24 -5 25 -4 10 8 -10 7 -16 15 -13 17 2 3 -5 5 -15 6 -11 1 -19 -3 -17
-9 1 -6 -4 -13 -12 -16 -11 -3 -12 0 -6 14 20 50 9 78 -40 103 -43 21 -62 37
-30 25 10 -4 15 0 15 11 0 9 -3 14 -7 12 -10 -6 -34 19 -26 27 4 3 2 6 -4 6
-6 0 -13 -7 -17 -15 -3 -10 1 -15 12 -15 14 0 15 -2 2 -10 -17 -11 -31 6 -22
28 3 10 1 13 -6 8 -8 -5 -10 -1 -5 10 5 14 3 16 -12 10 -11 -4 -16 -4 -12 1 4
4 -7 15 -25 25 -18 10 -23 16 -12 13 15 -4 24 0 28 11 5 13 2 15 -14 11 -11
-3 -20 -1 -20 4 0 5 -5 8 -12 6 -7 -1 -12 5 -13 13 0 8 -8 15 -17 15 -9 0 -20
4 -24 8 -4 4 -19 7 -33 6 -22 0 -23 -1 -7 -8 15 -6 16 -10 7 -16 -13 -8 -31
10 -31 31 0 7 -7 15 -16 18 -11 4 -15 2 -11 -8 4 -10 1 -13 -8 -9 -11 4 -12
10 -5 23 7 13 7 21 0 25 -5 3 -10 1 -10 -5 0 -7 -7 -10 -15 -6 -9 3 -15 0 -15
-9 0 -8 -6 -12 -14 -9 -9 3 -12 12 -9 21 5 12 3 14 -7 8 -8 -5 -11 -3 -8 6 2
7 -6 19 -20 26 -31 17 -32 17 -27 -7 2 -11 0 -20 -6 -20 -5 0 -9 9 -9 20 0 11
-4 20 -10 20 -5 0 -10 -4 -10 -10 0 -5 -4 -10 -10 -10 -5 0 -7 7 -4 15 4 8 1
15 -5 15 -6 0 -11 -6 -11 -12 0 -9 -3 -9 -9 1 -5 8 -6 21 -3 30 5 13 3 13 -12
-1 -9 -10 -14 -22 -11 -28 3 -5 1 -10 -5 -10 -6 0 -16 11 -22 25 -7 17 -14 21
-19 14 -4 -6 -12 -8 -18 -4 -9 5 -9 10 -1 20 14 17 -8 26 -32 13 -14 -7 -16
-5 -11 9 6 15 4 16 -9 6 -8 -7 -18 -10 -21 -6 -4 3 -14 0 -24 -8 -9 -8 -14 -9
-11 -4 4 6 0 19 -8 30 -10 13 -14 15 -14 4 0 -12 -2 -12 -10 1 -5 8 -10 11
-10 6 0 -5 -7 -3 -15 4 -12 10 -15 10 -15 0 0 -8 -3 -11 -6 -8 -3 4 0 16 6 28
11 20 10 21 -11 10 -19 -11 -21 -10 -16 4 4 9 2 16 -3 16 -6 0 -10 -8 -10 -17
0 -12 -3 -14 -8 -6 -4 6 -23 10 -45 8 -20 -2 -37 0 -37 4 0 4 -7 16 -16 27
-10 12 -14 13 -11 4 3 -11 -4 -15 -25 -16 -20 -1 -25 2 -16 7 10 7 9 9 -4 9
-10 0 -18 6 -18 13 0 8 -3 8 -8 1 -9 -13 -42 -26 -42 -16 0 4 -14 15 -30 24
-17 9 -30 13 -30 9 0 -5 -7 -12 -16 -15 -8 -3 -13 -2 -10 3 7 11 -19 33 -36
30 -7 -2 -23 2 -36 9 -22 12 -22 12 -16 -14 5 -19 4 -25 -5 -20 -6 4 -8 12 -5
18 4 6 -4 9 -17 8 -41 -4 -51 0 -46 14 3 8 -1 13 -11 12 -9 0 -16 5 -14 12 1
8 -2 11 -7 7 -6 -3 -8 -12 -4 -21 5 -12 1 -13 -21 -3 -25 12 -25 13 -10 31 10
10 13 18 8 18 -5 0 8 17 28 38 20 20 72 77 115 127 75 86 478 541 648 730 100
112 600 672 839 940 99 110 283 317 411 460 128 143 330 370 450 505 121 135
257 288 304 340 256 285 299 336 336 410 100 194 33 400 -162 498 -71 37 -163
57 -1130 251 -1007 203 -1064 212 -1205 185z m292 -85 c58 -12 107 -24 109
-26 3 -2 -12 -20 -32 -41 -36 -37 -46 -72 -29 -98 10 -17 49 -26 397 -100 171
-36 360 -76 420 -89 61 -13 171 -36 246 -51 l136 -28 62 24 c35 13 68 28 75
34 7 6 28 25 47 43 l34 32 117 -24 c179 -37 247 -61 297 -105 l44 -38 -11 -58
c-14 -65 -49 -116 -192 -274 -48 -52 -158 -174 -245 -270 -87 -96 -201 -222
-254 -280 -53 -58 -114 -125 -136 -150 -23 -25 -86 -94 -141 -155 -167 -183
-587 -646 -645 -711 -30 -33 -214 -235 -409 -450 -195 -214 -372 -409 -395
-433 -22 -25 -67 -75 -100 -111 -33 -36 -166 -183 -296 -325 -129 -143 -350
-386 -490 -539 -140 -154 -279 -307 -309 -341 -63 -71 -222 -247 -500 -550
-36 -39 -128 -141 -204 -226 -215 -238 -306 -321 -413 -379 -91 -49 -93 -50
-181 -50 -123 0 -171 18 -543 207 -173 88 -548 278 -834 423 -286 145 -544
281 -573 302 -37 28 -59 54 -73 85 -25 59 -25 64 17 151 45 92 -171 -129 2543
2607 1349 1359 1878 1888 1921 1920 63 46 146 86 199 96 70 12 224 3 341 -22z
m2025 -477 c13 -15 35 -34 50 -42 27 -15 27 -16 21 -88 -3 -40 -13 -87 -22
-104 -9 -17 -346 -396 -749 -842 -402 -446 -1075 -1191 -1495 -1656 -419 -465
-881 -975 -1025 -1135 -144 -159 -437 -483 -650 -720 -213 -236 -435 -481
-492 -543 -101 -109 -106 -112 -123 -95 -16 16 -17 20 -3 42 19 30 5 46 -29
31 -20 -10 -31 -9 -55 3 -19 10 -34 12 -44 6 -42 -27 -23 1 62 89 52 53 313
338 580 632 266 294 619 684 784 865 320 353 386 425 680 750 104 116 192 212
195 215 3 3 46 50 95 105 50 55 111 122 136 150 25 27 158 174 295 325 137
151 296 327 353 390 57 63 210 232 340 375 129 143 254 280 277 305 23 25 88
97 145 160 57 64 187 207 289 319 236 259 296 338 305 400 11 79 16 91 37 91
10 0 30 -13 43 -28z m-2959 -3981 c-3 -5 -17 -8 -31 -8 -13 0 -22 3 -19 8 3 5
16 9 30 9 14 0 23 -4 20 -9z m199 -41 c3 -6 -1 -7 -9 -4 -18 7 -21 14 -7 14 6
0 13 -4 16 -10z m543 -150 c-7 -10 -14 -17 -17 -15 -4 4 18 35 25 35 2 0 -1
-9 -8 -20z m440 -195 c-3 -3 -9 2 -12 12 -6 14 -5 15 5 6 7 -7 10 -15 7 -18z
m122 -165 c0 -5 -2 -10 -4 -10 -3 0 -8 5 -11 10 -3 6 -1 10 4 10 6 0 11 -4 11
-10z m106 -35 c-2 -7 0 -17 6 -23 6 -6 6 -12 -1 -16 -6 -4 -12 -1 -12 6 -1 7
-3 23 -4 35 -1 12 2 20 7 17 5 -3 7 -12 4 -19z m-6 -80 c0 -8 -4 -15 -10 -15
-5 0 -7 7 -4 15 4 8 8 15 10 15 2 0 4 -7 4 -15z m36 -73 c-6 -5 -36 23 -36 34
0 4 9 -1 20 -11 11 -10 18 -20 16 -23z m-309 -77 c0 -8 -4 -12 -9 -9 -4 3 -8
9 -8 15 0 5 4 9 8 9 5 0 9 -7 9 -15z m253 -15 c0 -5 -4 -10 -9 -10 -5 0 -7
-10 -5 -22 4 -21 4 -22 -5 -3 -9 19 -10 19 -10 1 -1 -11 -4 -16 -8 -13 -8 8
17 57 29 57 4 0 8 -4 8 -10z m-50 -20 c0 -5 -5 -10 -11 -10 -5 0 -7 5 -4 10 3
6 8 10 11 10 2 0 4 -4 4 -10z m70 -18 c-5 -2 -6 -10 -3 -18 3 -7 -2 -17 -11
-20 -26 -10 -31 4 -11 26 10 11 15 20 11 20 -4 0 -4 5 0 11 4 8 9 7 15 -2 5
-8 4 -15 -1 -17z m-315 -12 c10 -11 16 -20 13 -20 -3 0 -13 9 -23 20 -10 11
-16 20 -13 20 3 0 13 -9 23 -20z m255 -15 c7 -9 10 -18 6 -22 -3 -3 -6 -1 -6
7 0 9 -4 10 -13 2 -10 -8 -13 -6 -13 9 0 23 9 24 26 4z m-52 -22 c-9 -11 -9
-16 1 -22 9 -6 9 -10 -2 -20 -12 -10 -15 -6 -14 22 1 20 6 34 14 34 10 0 10
-4 1 -14z m-108 -7 c0 -2 -7 -7 -16 -10 -8 -3 -12 -2 -9 4 6 10 25 14 25 6z
m-216 -65 c-2 -2 -9 1 -16 7 -7 6 -17 10 -21 10 -5 0 -12 4 -15 8 -4 4 -1 4 6
0 7 -4 12 -2 12 5 0 7 8 5 19 -7 10 -10 17 -21 15 -23z m223 33 c-3 -3 -12 -4
-19 -1 -8 3 -5 6 6 6 11 1 17 -2 13 -5z m-77 -24 c0 -5 -5 -10 -11 -10 -5 0
-7 5 -4 10 3 6 8 10 11 10 2 0 4 -4 4 -10z m-35 -10 c-3 -5 -1 -10 4 -10 6 0
11 -4 11 -8 0 -5 -6 -9 -14 -9 -7 0 -12 7 -11 16 5 22 4 21 11 21 3 0 2 -4 -1
-10z m-178 -25 c0 -8 -4 -12 -9 -9 -5 3 -6 10 -3 15 9 13 12 11 12 -6z m-44
-40 c-3 -9 -8 -14 -10 -11 -3 3 -2 9 2 15 9 16 15 13 8 -4z m-170 -2 c-7 -2
-19 -2 -25 0 -7 3 -2 5 12 5 14 0 19 -2 13 -5z m-86 -9 c-3 -3 -12 -4 -19 -1
-8 3 -5 6 6 6 11 1 17 -2 13 -5z m203 -14 c8 -16 8 -20 -4 -20 -10 0 -13 6 -9
17 4 11 3 14 -5 9 -7 -4 -12 -2 -12 3 0 18 19 12 30 -9z m80 -16 c0 -2 -9 -4
-20 -4 -11 0 -20 4 -20 9 0 5 9 7 20 4 11 -3 20 -7 20 -9z m-102 -22 c6 6 14
9 18 6 3 -4 -3 -11 -14 -17 -16 -8 -24 -5 -43 17 l-24 27 26 -22 c19 -18 28
-20 37 -11z m-4193 8 c3 -5 2 -10 -4 -10 -5 0 -13 5 -16 10 -3 6 -2 10 4 10 5
0 13 -4 16 -10z m95 -4 c0 -8 -4 -17 -9 -21 -12 -7 -24 12 -16 25 9 15 25 12
25 -4z m3963 -1 c-3 -9 -8 -14 -10 -11 -3 3 -2 9 2 15 9 16 15 13 8 -4z m182
-5 c-5 -15 -1 -22 17 -29 15 -7 17 -10 7 -10 -9 -1 -22 -7 -28 -15 -17 -20
-61 -27 -61 -10 0 8 -5 14 -11 14 -5 0 -7 4 -4 10 3 5 19 7 35 3 27 -5 30 -3
30 19 0 23 7 38 17 38 3 0 1 -9 -2 -20z m-4427 -2 c7 -9 6 -17 -5 -27 -13 -12
-14 -11 -8 10 8 23 8 23 -29 -4 -27 -21 -36 -24 -36 -13 0 17 34 39 44 29 3
-3 6 -1 6 5 0 16 15 15 28 0z m4095 -53 c-7 -21 -12 -19 -10 4 0 11 5 18 9 15
4 -3 5 -11 1 -19z m47 -32 c0 -8 -5 -13 -12 -11 -18 6 -21 25 -3 25 8 0 15 -7
15 -14z m67 2 c0 -8 -4 -15 -9 -15 -10 0 -11 14 -1 23 9 10 10 9 10 -8z m-295
-6 c2 -2 1 -3 -1 -2 -2 1 -12 -8 -22 -20 -10 -12 -18 -16 -19 -9 0 6 5 12 11
12 6 0 9 6 6 14 -5 13 18 17 25 5z m165 -11 c-3 -8 -6 -5 -6 6 -1 11 2 17 5
13 3 -3 4 -12 1 -19z m-46 -23 c-19 -41 -36 -48 -18 -7 9 22 25 41 33 42 1 0
-6 -16 -15 -35z m-204 -7 c-3 -7 -5 -2 -5 12 0 14 2 19 5 13 2 -7 2 -19 0 -25z
m307 -17 c-7 -9 -34 10 -34 24 0 13 3 12 18 -2 10 -10 17 -20 16 -22z m31 29
c8 -13 -5 -13 -25 0 -13 8 -13 10 2 10 9 0 20 -4 23 -10z m38 -5 c-3 -9 -8
-14 -10 -11 -3 3 -2 9 2 15 9 16 15 13 8 -4z m-4443 1 c0 -3 -4 -8 -10 -11 -5
-3 -10 -1 -10 4 0 6 5 11 10 11 6 0 10 -2 10 -4z m-40 -16 c0 -5 -2 -10 -4
-10 -3 0 -8 5 -11 10 -3 6 -1 10 4 10 6 0 11 -4 11 -10z m4350 -4 c0 -10 -7
-12 -22 -8 -21 5 -21 6 -2 13 10 4 20 8 22 8 1 1 2 -5 2 -13z m-119 -19 c-10
-9 -11 -8 -5 6 3 10 9 15 12 12 3 -3 0 -11 -7 -18z m-93 1 c-2 -6 -10 -14 -16
-16 -7 -2 -10 2 -6 12 7 18 28 22 22 4z m281 -37 c-1 -13 -2 -13 -6 2 -2 9 -8
15 -12 13 -4 -3 -8 1 -8 9 0 11 4 12 14 4 7 -6 12 -19 12 -28z m-105 14 c-4
-8 -8 -15 -10 -15 -2 0 -4 7 -4 15 0 8 4 15 10 15 5 0 7 -7 4 -15z m36 -20
c-14 -27 -33 -35 -24 -10 4 8 10 15 15 15 5 0 9 8 9 17 0 9 3 13 7 10 3 -4 0
-18 -7 -32z m-135 15 c3 -5 1 -10 -4 -10 -6 0 -11 5 -11 10 0 6 2 10 4 10 3 0
8 -4 11 -10z m-1910 -75 c-20 -31 -51 -65 -69 -76 -44 -27 -165 -73 -172 -66
-4 3 2 21 13 39 15 25 43 45 121 84 56 27 110 58 119 67 31 31 26 8 -12 -48z
m1831 53 c4 -7 4 -10 -1 -6 -4 4 -13 3 -20 -2 -8 -7 -12 -5 -12 5 0 18 23 20
33 3z m48 -14 c3 -8 2 -12 -4 -9 -6 3 -10 10 -10 16 0 14 7 11 14 -7z m96 5
c0 -6 -5 -20 -11 -31 -10 -18 -9 -20 5 -15 10 4 20 -1 26 -13 13 -24 12 -40
-1 -17 -12 21 -33 23 -25 2 3 -9 0 -15 -9 -15 -8 0 -15 9 -15 21 0 12 -4 17
-11 14 -6 -4 -8 -13 -5 -20 3 -9 -2 -13 -14 -12 -17 1 -18 3 -5 17 19 21 19
39 0 46 -24 10 -17 22 9 17 16 -3 23 -10 19 -19 -3 -8 -1 -14 5 -14 16 0 24
33 10 42 -10 6 -8 8 5 8 9 0 17 -5 17 -11z m-4360 -13 c0 -3 -4 -8 -10 -11 -5
-3 -10 -1 -10 4 0 6 5 11 10 11 6 0 10 -2 10 -4z m4245 -6 c3 -5 -3 -10 -15
-10 -12 0 -18 5 -15 10 3 6 10 10 15 10 5 0 12 -4 15 -10z m-45 -38 c-5 -2 -6
-10 -3 -18 3 -8 0 -14 -6 -14 -6 0 -11 4 -11 10 0 5 -8 6 -17 3 -14 -6 -14 -3
2 19 14 18 22 22 31 14 7 -6 8 -12 4 -14z m80 -4 c-21 -20 -24 -20 -35 -4 -8
10 -15 13 -18 6 -3 -6 -4 -5 -3 2 1 7 10 14 19 16 13 3 15 -1 11 -15 -6 -15
-3 -14 17 4 12 12 25 20 28 18 2 -3 -6 -15 -19 -27z m-320 12 c-8 -5 -19 -10
-25 -10 -5 0 -3 5 5 10 8 5 20 10 25 10 6 0 3 -5 -5 -10z m60 6 c0 -2 -8 -10
-17 -17 -16 -13 -17 -12 -4 4 13 16 21 21 21 13z m113 -11 c-3 -9 -8 -14 -10
-11 -3 3 -2 9 2 15 9 16 15 13 8 -4z m-4137 -30 c3 -17 -12 -20 -21 -5 -7 12
4 34 13 25 3 -3 7 -12 8 -20z m4043 11 c-2 -2 -15 -9 -29 -15 -24 -11 -24 -11
-6 3 16 13 49 24 35 12z m31 -6 c0 -5 -2 -10 -4 -10 -3 0 -8 5 -11 10 -3 6 -1
10 4 10 6 0 11 -4 11 -10z m198 -31 c-7 -5 -19 -9 -27 -9 -11 0 -11 3 -1 14 6
8 18 12 27 9 12 -5 12 -7 1 -14z m-438 1 c0 -5 -5 -10 -11 -10 -5 0 -7 5 -4
10 3 6 8 10 11 10 2 0 4 -4 4 -10z m11 -23 c-10 -9 -11 -8 -5 6 3 10 9 15 12
12 3 -3 0 -11 -7 -18z m136 4 c1 -14 -3 -18 -13 -14 -17 6 -18 20 -1 26 6 3
12 6 12 6 1 1 1 -8 2 -18z m-87 -33 c0 -6 -6 -5 -15 2 -8 7 -15 14 -15 16 0 2
7 1 15 -2 8 -4 15 -11 15 -16z m-168 -10 c-7 -7 -12 -8 -12 -2 0 14 12 26 19
19 2 -3 -1 -11 -7 -17z m208 -8 c13 -11 19 -20 14 -20 -12 1 -44 25 -44 34 0
10 5 7 30 -14z m-107 -15 c-3 -9 -8 -14 -10 -11 -3 3 -2 9 2 15 9 16 15 13 8
-4z m41 -38 c7 -5 3 -14 -12 -27 -13 -11 -21 -24 -18 -29 4 -5 3 -12 -2 -15
-14 -9 -11 32 4 45 17 14 18 29 2 25 -7 -1 -10 -1 -5 1 4 3 7 12 8 21 0 14 2
14 6 2 3 -8 11 -18 17 -23z m-122 -9 c-8 -8 -9 -4 -5 13 4 13 8 18 11 10 2 -7
-1 -18 -6 -23z m188 -10 c0 -5 -7 -8 -15 -8 -17 0 -18 2 -9 25 5 13 8 14 15 3
5 -7 9 -16 9 -20z m-279 -1 c-6 -8 -7 -18 -3 -22 4 -5 1 -5 -6 -1 -10 6 -10
11 -1 22 6 8 14 14 16 14 3 0 0 -6 -6 -13z m134 3 c3 -6 -1 -7 -9 -4 -18 7
-21 14 -7 14 6 0 13 -4 16 -10z m-3485 -15 c0 -8 -7 -15 -15 -15 -26 0 -18 20
13 29 1 1 2 -6 2 -14z m3460 -4 c0 -10 19 -9 38 2 8 6 12 1 12 -16 0 -24 0
-24 -35 -9 -33 15 -46 32 -25 32 6 0 10 -4 10 -9z m136 -6 c16 -13 17 -16 4
-25 -8 -5 -22 -9 -30 -9 -10 0 -11 2 -2 6 6 2 12 9 12 15 0 6 -7 8 -14 5 -10
-4 -13 -1 -9 9 7 18 14 18 39 -1z m-271 -5 c3 -5 1 -10 -4 -10 -6 0 -11 5 -11
10 0 6 2 10 4 10 3 0 8 -4 11 -10z m25 -25 c0 -9 -6 -12 -16 -8 -13 5 -13 7
-2 14 17 11 18 11 18 -6z m100 1 c0 -2 -7 -7 -16 -10 -8 -3 -12 -2 -9 4 6 10
25 14 25 6z m-187 -74 c-7 -2 -13 -7 -13 -12 0 -4 -8 -11 -17 -14 -14 -6 -12
-2 5 17 12 13 22 32 23 43 1 15 3 13 8 -6 5 -17 3 -26 -6 -28z m100 33 c4 -8
2 -17 -3 -20 -6 -4 -10 -4 -10 -1 0 2 -3 11 -6 20 -3 9 -2 16 4 16 5 0 12 -7
15 -15z m157 -9 c0 -9 -8 -12 -25 -8 -17 3 -25 0 -23 -8 2 -7 -4 -15 -12 -17
-12 -4 -12 -3 -2 5 8 5 13 13 12 18 -1 4 7 11 17 15 27 11 33 10 33 -5z m-345
-16 c3 -5 1 -10 -4 -10 -6 0 -11 5 -11 10 0 6 2 10 4 10 3 0 8 -4 11 -10z
m145 1 c0 -5 -7 -12 -16 -15 -14 -5 -15 -4 -4 9 14 17 20 19 20 6z m-367 -36
c4 -8 3 -16 -1 -19 -4 -3 -9 4 -9 15 -2 23 3 25 10 4z m152 -14 c3 -5 2 -12
-3 -15 -5 -3 -9 1 -9 9 0 17 3 19 12 6z m-35 -21 c0 -5 -5 -10 -11 -10 -5 0
-7 5 -4 10 3 6 8 10 11 10 2 0 4 -4 4 -10z m88 -1 c-2 -6 8 -15 21 -20 22 -9
22 -8 10 8 -8 9 -9 14 -2 10 6 -4 13 -2 15 5 3 9 9 8 22 -5 16 -15 14 -21 -7
-18 -4 1 -10 -13 -14 -30 l-6 -30 -16 24 c-9 13 -22 22 -29 20 -10 -4 -11 15
-3 45 3 8 11 0 9 -9z m-168 -3 c0 -2 -7 -6 -15 -10 -8 -3 -15 -1 -15 4 0 6 7
10 15 10 8 0 15 -2 15 -4z m-100 -16 c0 -5 -2 -10 -4 -10 -3 0 -8 5 -11 10 -3
6 -1 10 4 10 6 0 11 -4 11 -10z m227 4 c-3 -3 -12 -4 -19 -1 -8 3 -5 6 6 6 11
1 17 -2 13 -5z m-77 -14 c8 -5 11 -10 5 -10 -5 0 -17 5 -25 10 -8 5 -10 10 -5
10 6 0 17 -5 25 -10z m37 -5 c0 -8 -4 -15 -9 -15 -10 0 -11 14 -1 23 9 10 10
9 10 -8z m-135 -29 c3 2 5 -3 5 -11 0 -12 -3 -12 -15 -2 -12 9 -16 9 -19 -1
-6 -15 -23 -6 -23 13 0 11 6 12 24 5 13 -5 26 -7 28 -4z m-2457 -28 c5 4 5 1
1 -6 -6 -10 -11 -10 -22 -1 -8 6 -14 14 -14 16 0 3 6 0 13 -6 8 -6 18 -7 22
-3z m2405 -20 c0 -4 -4 -8 -9 -8 -6 0 -12 4 -15 8 -3 5 1 9 9 9 8 0 15 -4 15
-9z m10 -24 c-18 -21 -24 -10 -8 15 7 12 14 17 16 11 2 -6 -2 -17 -8 -26z m80
26 c0 -5 -7 -7 -15 -4 -8 4 -15 8 -15 10 0 2 7 4 15 4 8 0 15 -4 15 -10z
m-266 -16 c3 -8 2 -12 -4 -9 -6 3 -10 10 -10 16 0 14 7 11 14 -7z m86 -2 c0
-18 -28 -44 -41 -39 -10 4 -9 6 4 6 15 1 22 12 18 34 0 4 4 7 9 7 6 0 10 -4
10 -8z m153 -6 c4 -10 0 -12 -14 -9 -10 3 -16 9 -13 14 8 13 21 11 27 -5z
m-88 -6 c-3 -5 -10 -10 -16 -10 -5 0 -9 5 -9 10 0 6 7 10 16 10 8 0 12 -4 9
-10z m-41 -15 c3 -8 1 -15 -4 -15 -6 0 -10 7 -10 15 0 8 2 15 4 15 2 0 6 -7
10 -15z m-77 -51 c-3 -3 -12 -4 -19 -1 -8 3 -5 6 6 6 11 1 17 -2 13 -5z m-69
-39 c-2 -1 -14 -8 -28 -15 l-25 -13 19 22 c17 19 18 21 2 21 -10 0 -14 5 -11
11 5 7 14 4 26 -7 11 -9 18 -18 17 -19z m69 -13 c1 -19 -1 -21 -10 -11 -7 7
-19 19 -27 25 -12 10 -11 12 10 11 19 -2 25 -8 27 -25z m-127 8 c0 -5 -5 -10
-11 -10 -5 0 -7 5 -4 10 3 6 8 10 11 10 2 0 4 -4 4 -10z m-105 -10 c3 -5 1
-10 -4 -10 -6 0 -11 5 -11 10 0 6 2 10 4 10 3 0 8 -4 11 -10z m87 -50 c3 -21
1 -27 -5 -21 -11 11 -17 62 -6 55 4 -2 9 -17 11 -34z m-112 14 c0 -8 5 -12 10
-9 6 3 10 1 10 -4 0 -6 -3 -11 -7 -11 -12 0 -39 20 -28 20 6 0 3 5 -5 10 -13
8 -12 10 3 10 9 0 17 -7 17 -16z m90 2 c0 -3 -4 -8 -10 -11 -5 -3 -10 -1 -10
4 0 6 5 11 10 11 6 0 10 -2 10 -4z m-137 -77 c-8 -8 -13 -7 -18 2 -6 8 -4 10
5 4 10 -6 12 -4 6 11 -6 15 -5 17 5 7 9 -10 10 -16 2 -24z m47 -2 c0 -14 -6
-24 -15 -24 -8 0 -11 5 -7 11 4 6 7 14 8 19 3 15 4 17 9 17 3 0 5 -10 5 -23z
m-166 -37 c-10 -4 -21 -6 -24 -3 -8 7 24 22 34 16 5 -4 1 -10 -10 -13z m76
-10 c6 -11 5 -17 -3 -17 -7 0 -20 -4 -29 -8 -11 -4 -18 -3 -18 4 0 6 10 11 22
11 21 0 21 0 3 20 -17 19 -17 20 -2 14 10 -3 22 -14 27 -24z m-1415 10 c3 -5
1 -10 -4 -10 -6 0 -11 5 -11 10 0 6 2 10 4 10 3 0 8 -4 11 -10z m59 -5 c3 -8
1 -15 -4 -15 -6 0 -10 7 -10 15 0 8 2 15 4 15 2 0 6 -7 10 -15z m1211 -45 c3
-5 2 -10 -4 -10 -5 0 -13 5 -16 10 -3 6 -2 10 4 10 5 0 13 -4 16 -10z m-35
-40 c-23 -23 -31 -25 -27 -7 1 6 9 15 17 19 27 12 30 8 10 -12z m-90 -50 c-13
-8 -12 -10 4 -10 11 0 17 -3 13 -6 -3 -4 -13 -4 -22 0 -18 6 -11 26 8 26 7 0
6 -4 -3 -10z m-54 -16 c-5 -14 -4 -15 8 -5 9 8 16 8 20 2 7 -11 -2 -18 -23
-17 -16 1 -25 36 -9 36 6 0 7 -7 4 -16z m158 0 c9 -3 16 -10 16 -16 0 -5 -4
-6 -10 -3 -5 3 -10 0 -10 -7 0 -9 -3 -9 -10 2 -18 27 -13 35 14 24z m-339 -34
c3 -5 1 -10 -4 -10 -6 0 -11 5 -11 10 0 6 2 10 4 10 3 0 8 -4 11 -10z m95 -26
c0 -2 -9 0 -20 6 -11 6 -20 13 -20 16 0 2 9 0 20 -6 11 -6 20 -13 20 -16z m80
11 c0 -8 -2 -15 -4 -15 -2 0 -6 7 -10 15 -3 8 -1 15 4 15 6 0 10 -7 10 -15z
m-560 -15 c0 -5 -5 -10 -11 -10 -5 0 -7 5 -4 10 3 6 8 10 11 10 2 0 4 -4 4
-10z m431 -18 c-7 -2 -18 1 -23 6 -8 8 -4 9 13 5 13 -4 18 -8 10 -11z"/>
<path d="M5670 5926 c0 -17 64 -178 67 -169 4 11 -55 173 -63 173 -2 0 -4 -2
-4 -4z"/>
<path d="M2295 4200 c3 -5 8 -10 11 -10 2 0 4 5 4 10 0 6 -5 10 -11 10 -5 0
-7 -4 -4 -10z"/>
<path d="M8055 3400 c3 -5 11 -10 16 -10 6 0 7 5 4 10 -3 6 -11 10 -16 10 -6
0 -7 -4 -4 -10z"/>
<path d="M8856 3071 c-3 -5 1 -12 10 -15 22 -8 25 -4 9 11 -8 7 -16 9 -19 4z"/>
<path d="M9050 2791 c0 -5 7 -11 14 -14 10 -4 13 -1 9 9 -6 15 -23 19 -23 5z"/>
<path d="M9030 2704 c0 -8 5 -12 10 -9 6 3 10 10 10 16 0 5 -4 9 -10 9 -5 0
-10 -7 -10 -16z"/>
<path d="M9010 2670 c0 -5 12 -10 28 -9 24 0 25 1 7 9 -27 12 -35 12 -35 0z"/>
<path d="M8950 2529 c0 -5 5 -7 10 -4 6 3 10 8 10 11 0 2 -4 4 -10 4 -5 0 -10
-5 -10 -11z"/>
<path d="M8780 2495 c-7 -9 -15 -13 -18 -10 -8 7 -42 -36 -36 -46 7 -12 24 -1
24 16 0 14 27 28 39 21 4 -3 8 4 8 15 2 23 -1 24 -17 4z"/>
<path d="M8810 2500 c0 -5 5 -10 10 -10 6 0 10 5 10 10 0 6 -4 10 -10 10 -5 0
-10 -4 -10 -10z"/>
<path d="M3931 2414 c0 -11 3 -14 6 -6 3 7 2 16 -1 19 -3 4 -6 -2 -5 -13z"/>
<path d="M8630 2418 c0 -21 18 -43 27 -34 4 5 2 11 -5 13 -6 3 -10 9 -7 13 3
5 1 11 -5 15 -5 3 -10 0 -10 -7z"/>
<path d="M8584 2389 c-3 -6 -1 -16 5 -22 9 -9 14 -8 21 3 9 15 4 30 -10 30 -5
0 -12 -5 -16 -11z"/>
<path d="M3836 2367 c3 -10 9 -15 12 -12 3 3 0 11 -7 18 -10 9 -11 8 -5 -6z"/>
<path d="M3780 2320 c0 -15 21 -23 32 -12 6 6 2 11 -11 15 -12 3 -21 1 -21 -3z"/>
<path d="M8297 2284 c-11 -11 -8 -26 3 -19 5 3 7 0 4 -9 -3 -8 -13 -17 -22
-21 -13 -5 -14 -4 -5 6 10 10 9 15 -4 24 -13 10 -20 10 -31 -1 -8 -8 -12 -21
-9 -28 3 -7 0 -19 -6 -26 -9 -10 -9 -14 1 -17 6 -3 12 -9 12 -14 0 -6 -4 -7
-10 -4 -6 4 -7 -1 -3 -11 6 -15 7 -15 15 0 6 11 5 22 -2 32 -8 9 -9 14 -2 14
6 0 16 2 24 5 7 3 19 1 27 -4 12 -8 12 -12 2 -24 -9 -12 -9 -17 0 -23 7 -4 9
-3 6 3 -7 11 17 36 43 46 12 4 11 6 -2 6 -10 1 -18 8 -18 16 0 18 21 20 38 3
9 -9 12 -9 12 0 0 6 -9 16 -20 22 -11 6 -20 7 -20 3 0 -4 -6 1 -13 11 -7 9
-16 14 -20 10z m13 -64 c0 -5 -2 -10 -4 -10 -3 0 -8 5 -11 10 -3 6 -1 10 4 10
6 0 11 -4 11 -10z"/>
<path d="M3520 2185 c0 -5 5 -17 10 -25 5 -8 10 -10 10 -5 0 6 -5 17 -10 25
-5 8 -10 11 -10 5z"/>
<path d="M8075 2140 c-3 -6 1 -7 9 -4 18 7 21 14 7 14 -6 0 -13 -4 -16 -10z"/>
<path d="M8041 2094 c0 -11 3 -14 6 -6 3 7 2 16 -1 19 -3 4 -6 -2 -5 -13z"/>
<path d="M7730 2021 c-14 -4 -43 -6 -65 -5 -34 2 -37 1 -18 -8 17 -8 20 -15
13 -32 -5 -15 -3 -28 10 -43 10 -12 21 -19 24 -15 4 3 11 0 16 -8 14 -22 12
-33 -5 -26 -9 3 -15 0 -15 -9 0 -21 14 -19 35 5 10 11 13 20 7 20 -5 0 -8 9
-5 20 3 11 9 20 14 20 17 0 31 40 19 55 -7 8 -9 19 -5 25 3 5 5 10 3 9 -2 0
-14 -4 -28 -8z m-19 -33 c11 -11 19 -16 19 -9 0 7 5 9 10 6 15 -9 2 -24 -20
-22 -10 1 -16 5 -14 9 3 4 -2 8 -10 8 -9 0 -16 7 -16 15 0 21 9 19 31 -7z m4
-48 c3 -6 -1 -7 -9 -4 -18 7 -21 14 -7 14 6 0 13 -4 16 -10z"/>
<path d="M7870 1982 c0 -4 10 -9 22 -9 18 -2 20 0 8 7 -18 12 -30 13 -30 2z"/>
<path d="M7806 1968 c3 -4 11 -5 19 -1 21 7 19 12 -4 10 -11 0 -18 -5 -15 -9z"/>
<path d="M7782 1940 c0 -14 2 -19 5 -12 2 6 2 18 0 25 -3 6 -5 1 -5 -13z"/>
<path d="M7573 1865 c-17 -19 -16 -32 3 -39 15 -6 15 -4 3 11 -12 15 -12 16 4
10 12 -5 17 -1 17 13 0 23 -10 25 -27 5z"/>
<path d="M7613 1850 c-1 -11 2 -20 8 -20 5 0 9 9 9 20 0 11 -4 20 -8 20 -4 0
-8 -9 -9 -20z"/>
<path d="M3968 1808 c5 -5 16 -8 23 -6 8 3 3 7 -10 11 -17 4 -21 3 -13 -5z"/>
<path d="M7470 1756 c0 -2 7 -9 15 -16 13 -11 14 -10 9 4 -5 14 -24 23 -24 12z"/>
<path d="M7255 1660 c3 -5 8 -10 11 -10 2 0 4 5 4 10 0 6 -5 10 -11 10 -5 0
-7 -4 -4 -10z"/>
<path d="M4273 1635 c-10 -10 -9 -14 3 -19 8 -3 13 -2 9 3 -3 5 0 11 7 13 7 3
8 7 3 10 -6 3 -15 0 -22 -7z"/>
<path d="M7025 1594 c-9 -14 -14 -28 -11 -32 3 -3 6 0 6 6 0 7 10 12 23 13 12
0 16 3 10 6 -21 8 -15 22 8 16 11 -3 18 -11 15 -19 -3 -7 -1 -16 4 -19 6 -4
10 -1 10 5 0 6 5 8 10 5 6 -4 9 -1 8 6 -9 42 -59 50 -83 13z"/>
<path d="M7150 1606 c0 -2 7 -9 15 -16 13 -11 14 -10 9 4 -5 14 -24 23 -24 12z"/>
<path d="M6923 1518 c-2 -5 -1 -8 4 -7 20 3 27 -2 13 -11 -8 -5 -11 -12 -7
-17 9 -9 28 17 21 29 -8 13 10 9 26 -4 12 -11 12 -10 1 4 -12 17 -48 20 -58 6z"/>
<path d="M6840 1462 c0 -15 11 -21 27 -15 12 5 12 7 1 14 -17 11 -28 11 -28 1z"/>
<path d="M6855 1430 c-3 -5 1 -10 10 -10 9 0 13 5 10 10 -3 6 -8 10 -10 10 -2
0 -7 -4 -10 -10z"/>
<path d="M6750 1411 c0 -6 4 -12 8 -15 5 -3 9 1 9 9 0 8 -4 15 -9 15 -4 0 -8
-4 -8 -9z"/>
<path d="M6780 1416 c0 -2 6 -9 13 -15 10 -8 14 -7 14 4 0 8 -6 15 -14 15 -7
0 -13 -2 -13 -4z"/>
<path d="M6572 1380 c-9 -16 -10 -26 -1 -42 10 -19 9 -20 -11 -15 -12 3 -19 3
-16 0 3 -3 1 -14 -4 -24 -8 -14 -6 -17 10 -16 11 1 20 5 20 10 0 5 10 18 23
29 12 11 17 17 11 14 -18 -9 -40 22 -26 36 9 9 12 9 12 -1 0 -7 6 -11 15 -7 8
3 19 -2 24 -12 5 -9 13 -13 18 -8 4 5 2 11 -4 13 -19 7 -16 21 3 19 9 0 19 5
21 12 4 10 -2 10 -29 -1 -30 -13 -36 -13 -44 0 -7 11 -11 10 -22 -7z"/>
<path d="M6710 1379 c0 -5 5 -7 10 -4 6 3 10 8 10 11 0 2 -4 4 -10 4 -5 0 -10
-5 -10 -11z"/>
<path d="M6476 1318 c5 -7 2 -9 -9 -5 -18 7 -32 -19 -15 -29 7 -4 14 -2 16 4
2 7 9 9 14 6 6 -4 8 -2 4 4 -3 5 -1 12 6 14 7 3 5 7 -6 11 -11 5 -15 3 -10 -5z"/>
<path d="M4830 1310 c0 -5 5 -10 11 -10 5 0 7 5 4 10 -3 6 -8 10 -11 10 -2 0
-4 -4 -4 -10z"/>
<path d="M6610 1310 c0 -5 5 -10 11 -10 5 0 7 5 4 10 -3 6 -8 10 -11 10 -2 0
-4 -4 -4 -10z"/>
<path d="M6507 1303 c-4 -3 -7 -13 -7 -22 1 -13 3 -13 11 2 11 19 8 33 -4 20z"/>
<path d="M6365 1269 c-4 -6 -2 -15 5 -19 10 -6 9 -9 -1 -13 -11 -4 -10 -9 5
-23 10 -11 16 -14 12 -8 -7 13 40 48 53 40 4 -3 16 1 26 8 17 12 17 13 -4 19
-15 4 -28 -1 -39 -14 -21 -24 -39 -25 -21 -1 7 9 9 14 5 10 -5 -4 -15 -3 -22
3 -8 7 -14 6 -19 -2z"/>
<path d="M6253 1190 c-11 -16 -10 -18 2 -14 8 4 15 12 15 20 0 19 -3 18 -17
-6z"/>
<path d="M6325 1200 c-3 -5 -2 -10 4 -10 5 0 13 5 16 10 3 6 2 10 -4 10 -5 0
-13 -4 -16 -10z"/>
<path d="M6268 1166 c-10 -7 -18 -17 -18 -21 0 -4 6 -2 13 4 8 6 17 8 20 4 4
-3 7 -1 7 6 0 7 5 9 12 5 7 -4 8 -3 4 4 -9 15 -17 15 -38 -2z"/>
<path d="M5265 1100 c-3 -5 -1 -10 4 -10 6 0 11 5 11 10 0 6 -2 10 -4 10 -3 0
-8 -4 -11 -10z"/>
<path d="M5905 1010 c-3 -5 -1 -10 4 -10 6 0 11 5 11 10 0 6 -2 10 -4 10 -3 0
-8 -4 -11 -10z"/>
<path d="M5790 979 c0 -5 5 -7 10 -4 6 3 10 8 10 11 0 2 -4 4 -10 4 -5 0 -10
-5 -10 -11z"/>
</g>
</svg>
